HIERARCHY
ROOT Hips
{
	OFFSET -3.958830 18.904000 13.208200
	CHANNELS 6 Xposition Yposition Zposition Zrotation Yrotation Xrotation 
	JOINT LHipJoint
	{
		OFFSET 0.000000 0.000000 0.000000
		CHANNELS 3 Zrotation Yrotation Xrotation
		JOINT LeftUpLeg
		{
			OFFSET 1.800000 -1.400000 0.085000
			CHANNELS 3 Zrotation Yrotation Xrotation
			JOINT LeftLeg
			{
				OFFSET 2.215000 -6.000000 0.000000
				CHANNELS 3 Zrotation Yrotation Xrotation
				JOINT LeftFoot
				{
					OFFSET 2.500000 -6.900000 0.000000
					CHANNELS 3 Zrotation Yrotation Xrotation
					JOINT LeftToeBase
					{
						OFFSET 0.200000 -0.500000 1.950000
						CHANNELS 3 Zrotation Yrotation Xrotation
						End Site
						{
							OFFSET 0.000000 0.000000 0.000000
						}
					}
				}
			}
		}
	}
	JOINT RHipJoint
	{
		OFFSET 0.000000 0.000000 0.000000
		CHANNELS 3 Zrotation Yrotation Xrotation
		JOINT RightUpLeg
		{
			OFFSET -1.800000 -1.400000 0.085000
			CHANNELS 3 Zrotation Yrotation Xrotation
			JOINT RightLeg
			{
				OFFSET -2.215000 -6.000000 0.000000
				CHANNELS 3 Zrotation Yrotation Xrotation
				JOINT RightFoot
				{
					OFFSET -2.500000 -6.900000 0.000000
					CHANNELS 3 Zrotation Yrotation Xrotation
					JOINT RightToeBase
					{
						OFFSET -0.200000 -0.500000 1.950000
						CHANNELS 3 Zrotation Yrotation Xrotation
						End Site
						{
							OFFSET 0.000000 0.000000 0.000000
						}
					}
				}
			}
		}
	}
	JOINT LowerBack
	{
		OFFSET 0.000000 0.000000 0.000000
		CHANNELS 3 Zrotation Yrotation Xrotation
		JOINT Spine
		{
			OFFSET -0.087000 1.940000 -0.288900
			CHANNELS 3 Zrotation Yrotation Xrotation
			JOINT Spine1
			{
				OFFSET 0.000000 1.950000 0.060000
				CHANNELS 3 Zrotation Yrotation Xrotation
				JOINT Neck
				{
					OFFSET 0.000000 0.000000 0.000000
					CHANNELS 3 Zrotation Yrotation Xrotation
					JOINT Neck1
					{
						OFFSET 0.000000 1.600000 0.340000
						CHANNELS 3 Zrotation Yrotation Xrotation
						JOINT Head
						{
							OFFSET 0.000000 1.667000 -0.240000
							CHANNELS 3 Zrotation Yrotation Xrotation
							End Site
							{
								OFFSET 0.000000 0.000000 0.000000
							}
						}
					}
				}
				JOINT LeftShoulder
				{
					OFFSET 0.000000 0.000000 0.000000
					CHANNELS 3 Zrotation Yrotation Xrotation
					JOINT LeftArm
					{
						OFFSET 2.700000 1.550000 -0.730000
						CHANNELS 3 Zrotation Yrotation Xrotation
						JOINT LeftForeArm
						{
							OFFSET 5.450000 0.000000 0.000000
							CHANNELS 3 Zrotation Yrotation Xrotation
							JOINT LeftHand
							{
								OFFSET 3.450000 0.000000 0.000000
								CHANNELS 3 Zrotation Yrotation Xrotation
								JOINT LeftHandIndex1
								{
									OFFSET 0.750000 0.000000 0.000000
									CHANNELS 3 Zrotation Yrotation Xrotation
									End Site
									{
										OFFSET 0.000000 0.000000 0.000000
									}
								}
							}
						}
					}
				}
				JOINT RightShoulder
				{
					OFFSET 0.000000 0.000000 0.000000
					CHANNELS 3 Zrotation Yrotation Xrotation
					JOINT RightArm
					{
						OFFSET -2.700000 1.550000 -0.730000
						CHANNELS 3 Zrotation Yrotation Xrotation
						JOINT RightForeArm
						{
							OFFSET -5.450000 0.000000 0.000000
							CHANNELS 3 Zrotation Yrotation Xrotation
							JOINT RightHand
							{
								OFFSET -3.450000 0.000000 0.000000
								CHANNELS 3 Zrotation Yrotation Xrotation
								JOINT RightHandIndex1
								{
									OFFSET -0.750000 0.000000 0.000000
									CHANNELS 3 Zrotation Yrotation Xrotation
									End Site
									{
										OFFSET 0.000000 0.000000 0.000000
									}
								}
							}
						}
					}
				}
			}
		}
	}
}
MOTION
Frames: 8
Frame Time: 0.016667
0.348290 17.402470 -4.793590 -5.883310 -8.539369 -12.121308 -15.259798 14.511861 4.036758 9.117472 -2.034392 -19.068696 -15.889226 6.858391 9.598365 0.039967 4.163161 3.024795 -0.006280 -0.363450 0.173530 17.939693 -10.099045 2.696936 3.844965 0.748343 -6.739007 0.832450 -6.865130 33.367030 -0.604448 -4.624979 2.982239 -0.458460 -0.206120 -0.211120 -2.815470 -5.579410 -8.171332 21.070622 -4.427588 34.477528 -7.914411 3.823636 -23.268808 4.328055 -9.385295 -20.100948 -34.026278 13.147319 49.793594 10.279710 -2.604590 -3.636490 -8.125364 3.354553 10.848679 -52.347681 18.760055 -5.680939 165.123573 -57.619539 -166.153135 -2.999628 3.223896 0.809580 -0.414840 0.122150 -0.083870 4.938281 7.413849 11.632857 63.939023 -19.832235 -17.329952 20.195841 26.294821 2.946567 2.493074 -0.842875 -0.181280 0.043020 0.012030 -0.262330 
0.350820 17.398790 -4.759100 -5.810709 -9.261553 -11.916084 -15.226256 14.446650 4.033147 9.470123 -1.980927 -18.545906 -16.174278 6.814150 8.921050 0.027354 4.226525 3.025500 -0.036600 -0.401720 0.149230 17.983725 -10.115393 2.688529 4.168912 0.838738 -7.356320 -0.080511 -6.586011 33.849984 -0.584547 -4.621514 2.991831 -0.463880 -0.163740 -0.227240 -2.906010 -5.446676 -8.135513 21.659495 -4.686478 33.882516 -9.002574 2.932567 -23.188725 4.626506 -9.350068 -19.999153 -34.349204 13.376662 48.798545 10.729750 -2.709420 -2.986560 -7.368722 3.885878 10.657991 -54.055796 16.856894 -5.077657 160.561905 -55.921877 -157.595069 -3.044578 3.182433 0.808910 -0.395050 0.091980 -0.082670 3.688280 6.461629 11.409542 63.917515 -19.752705 -17.017165 23.434670 25.442309 3.255557 2.492774 -0.841577 -0.216330 0.075690 0.034930 -0.263560 
0.370960 17.382010 -4.698970 -5.650657 -7.590929 -12.392910 -15.145663 14.369252 3.932220 8.779733 -1.964948 -16.984671 -15.483961 6.445473 7.816517 0.007234 4.120771 3.110095 -0.081610 -0.442190 0.075190 18.077486 -10.249982 2.662387 4.573027 0.603662 -8.621284 -1.861581 -6.373833 35.454502 -0.583322 -4.777035 2.954939 -0.475480 -0.085560 -0.222630 -3.175749 -5.106953 -7.995081 22.705196 -6.231817 33.153276 -11.875547 -0.087399 -22.881682 5.670468 -9.323592 -19.417314 -34.710002 13.072930 45.814607 11.398220 -3.362770 -1.702080 -7.606290 4.879550 9.404938 -54.950408 12.282859 -2.812853 154.802957 -48.460105 -141.714844 -3.167393 3.082432 0.775420 -0.346810 0.045440 -0.061060 2.009091 4.151668 11.139792 62.391005 -21.466044 -16.753071 32.223409 24.187557 4.172384 2.468761 -0.898212 -0.235950 0.099180 0.068060 -0.236230 
0.395580 17.412070 -4.682930 -5.857723 -4.457051 -15.826200 -15.055945 14.326497 3.719148 8.622097 -1.567486 -12.385250 -14.362918 6.345986 7.547665 0.044552 4.117447 3.109238 0.044940 -0.266390 0.157130 18.175438 -10.512552 2.613901 4.629524 -0.781878 -7.069692 -3.157609 -6.459590 35.290819 -0.691059 -4.835632 2.909498 -0.393700 -0.155900 -0.213090 -3.488961 -4.588263 -7.806543 23.823203 -9.148805 34.235423 -14.661282 -3.495341 -20.317654 6.557272 -8.788685 -19.616421 -36.801202 14.392755 47.575986 13.333410 -3.814680 -4.433790 -11.885910 0.912000 8.451125 -54.654121 6.121161 -2.167166 149.975243 -40.210981 -125.400585 -3.177410 2.905794 0.788910 -0.402100 0.129270 -0.043950 4.148286 6.122578 12.079900 59.416704 -23.912283 -17.432473 40.447600 23.044884 4.216036 2.454851 -0.963860 -0.170950 0.107600 0.001540 -0.221520 
0.402600 17.467300 -4.704420 -5.377989 -2.970165 -20.305491 -14.884956 14.156398 3.433425 8.503663 -0.944250 -6.238954 -12.312302 6.466966 8.451862 0.026625 4.240665 3.082500 0.194890 -0.099380 0.280860 18.348827 -10.977279 2.619665 4.095853 -2.088005 -4.510209 -4.854359 -5.963087 32.572198 -0.772888 -4.643236 2.947450 -0.290400 -0.231430 -0.207030 -3.981131 -3.423195 -7.643526 23.869556 -11.374137 36.490405 -17.246462 -6.312194 -15.893306 6.608424 -7.842361 -20.084844 -37.553710 15.461167 50.518483 14.881560 -3.306060 -8.779330 -16.251146 -5.050825 7.964465 -51.731157 -0.337693 -2.282134 147.222824 -34.152210 -114.077924 -3.147362 2.745237 0.871490 -0.468430 0.222740 -0.020460 7.560794 9.547688 13.431849 57.553737 -26.012224 -19.430311 48.294266 25.516213 4.904883 2.383645 -1.042120 -0.157150 0.146480 -0.067990 -0.249160 
0.412000 17.494940 -4.713430 -4.553362 -2.862650 -23.581032 -14.688458 13.768505 3.272504 8.093201 -0.563749 -1.270098 -11.318591 6.610221 8.670476 0.043525 4.423293 3.037576 0.218750 -0.061140 0.292650 18.570235 -11.446497 2.607167 3.511827 -2.932619 -2.874557 -7.139972 -5.298220 30.809710 -0.794403 -4.609968 2.953539 -0.253590 -0.223030 -0.206840 -4.558763 -1.968690 -7.536857 23.817224 -13.408789 38.500223 -19.875113 -9.206849 -12.287221 6.305764 -7.751647 -19.945234 -37.566490 15.582974 49.284430 16.305760 -2.573560 -11.796020 -17.002243 -8.017535 7.815391 -50.460327 -4.821974 -2.354200 146.880247 -30.106073 -109.497828 -3.171591 2.702057 0.886640 -0.473870 0.225550 -0.031450 8.132659 10.599738 13.597792 55.684290 -25.680818 -19.693483 56.378940 27.059594 6.313806 2.334971 -1.131227 -0.167840 0.175570 -0.056220 -0.254090 
0.420960 17.492700 -4.728550 -3.939917 -3.007357 -26.610136 -14.498204 13.270591 3.170178 7.710052 -0.363501 3.255395 -11.066321 6.867662 8.968609 0.061651 4.728608 2.955165 0.272540 -0.009620 0.293620 18.805790 -11.832366 2.635138 3.452429 -3.650180 -1.206982 -8.907614 -4.860690 29.087975 -0.837972 -4.692592 2.915420 -0.189310 -0.184080 -0.175100 -5.155953 -0.486633 -7.492178 23.564734 -15.622538 39.480279 -22.635581 -11.792073 -6.671111 6.046581 -7.931222 -19.523926 -36.189667 15.020511 46.900094 16.376570 -1.609320 -13.222400 -16.835880 -11.164017 7.868538 -49.475355 -9.628995 -3.293707 145.842278 -27.160942 -106.272314 -3.216404 2.721748 0.886540 -0.449160 0.207900 0.000530 7.328996 12.146281 13.531726 53.590434 -22.792468 -18.981605 65.730216 28.251567 8.276522 2.248905 -1.321906 -0.181460 0.191070 -0.054300 -0.251480 
0.399610 17.484450 -4.762340 -3.093437 -4.008865 -30.488853 -14.364734 12.797603 3.166289 7.717695 -0.334715 8.316166 -12.572799 7.867441 10.843436 0.190668 5.414652 2.723733 0.317430 0.081010 0.281810 18.985754 -12.016841 2.747197 3.914393 -4.041692 1.236930 -8.967862 -4.930269 27.490795 -0.896318 -4.839733 2.871922 -0.114900 -0.138960 -0.144090 -5.599566 0.665094 -7.539262 21.070852 -16.579864 41.479182 -23.960051 -11.948167 2.799364 5.846921 -8.233613 -19.527799 -33.837375 13.452411 44.013945 15.230010 -0.544890 -15.644130 -16.336933 -16.767559 8.392880 -47.598353 -16.344745 -5.897445 143.663821 -25.197338 -104.591512 -3.316374 2.671773 0.845580 -0.404120 0.198260 0.018510 6.140424 16.719351 14.275270 53.281102 -18.486730 -20.714751 73.713922 33.461657 11.700554 2.134329 -1.492792 -0.168690 0.228480 -0.041820 -0.227250 
